<?xml version="1.0" standalone="no"?>
<!DOCTYPE svg PUBLIC "-//W3C//DTD SVG 20010904//EN"
 "http://www.w3.org/TR/2001/REC-SVG-20010904/DTD/svg10.dtd">
<svg version="1.0" xmlns="http://www.w3.org/2000/svg"
 width="400.000000pt" height="400.000000pt" viewBox="0 0 400.000000 400.000000"
 preserveAspectRatio="xMidYMid meet">
<metadata>
Created by potrace 1.14, written by Peter Selinger 2001-2017
</metadata>
<g transform="translate(0.000000,400.000000) scale(0.100000,-0.100000)"
fill="#000000" stroke="none">
<path d="M1830 3639 c-498 -55 -937 -323 -1207 -736 -200 -306 -295 -678 -265
-1036 55 -661 496 -1224 1122 -1431 590 -195 1231 -46 1674 389 419 411 585
1001 442 1576 -157 634 -683 1118 -1331 1224 -117 20 -327 26 -435 14z m-169
-1295 c-12 -15 -21 -38 -21 -52 0 -16 -22 -52 -60 -99 l-60 -73 59 0 c45 0 62
-4 69 -16 8 -15 11 -14 23 4 14 19 27 21 229 25 118 2 235 2 260 -2 l44 -6
-24 -16 c-14 -9 -57 -32 -95 -52 -76 -38 -134 -78 -83 -56 23 10 38 7 112 -23
66 -28 86 -33 90 -22 3 7 -4 20 -15 28 -20 14 -20 14 9 21 24 5 36 18 63 70
l32 63 71 6 c39 3 122 5 183 5 l113 -1 -6 -27 c-4 -14 -9 -29 -13 -32 -14 -14
-314 -99 -348 -99 -2 0 -3 11 -3 25 0 14 -4 25 -10 25 -5 0 -10 -18 -10 -40 0
-46 -24 -90 -49 -90 -25 0 -30 -8 -22 -38 8 -26 -5 -72 -19 -72 -4 0 -13 7
-20 16 -11 13 -10 23 9 61 25 51 21 65 -9 38 -18 -16 -20 -16 -20 -2 0 18 -26
24 -32 7 -4 -11 -96 18 -153 49 -22 11 -45 21 -51 21 -6 0 -19 -20 -28 -44
-21 -56 -37 -70 -59 -53 -15 11 -13 19 18 90 53 123 53 117 3 116 -65 -1 -131
-13 -135 -24 -2 -6 23 -9 68 -7 69 4 70 3 57 -17 -13 -21 -48 -20 -56 0 -2 5
-8 9 -13 9 -6 0 -7 -4 -4 -10 3 -5 -1 -10 -10 -10 -9 0 -13 5 -10 10 10 16 -7
12 -28 -7 -11 -10 -17 -13 -14 -6 11 17 -8 24 -37 14 -20 -8 -24 -7 -19 4 6
17 -8 20 -23 5 -11 -11 -54 -2 -54 11 0 5 -18 9 -40 9 -22 0 -40 -4 -40 -10 0
-5 -10 -8 -22 -6 -13 2 -32 -4 -43 -13 -19 -16 -19 -16 0 14 25 41 163 203
180 212 7 5 27 27 44 51 17 23 34 42 37 42 3 0 -4 -12 -15 -26z m-438 -68 c9
-7 17 -19 17 -26 0 -7 -3 -11 -6 -7 -4 3 -20 -1 -36 -9 -16 -9 -37 -13 -45
-10 -9 4 -21 2 -27 -2 -27 -21 -208 -114 -202 -104 5 8 2 10 -8 6 -10 -4 -16
-1 -16 7 0 9 -3 10 -8 4 -4 -5 -11 -11 -17 -11 -5 -1 -21 -5 -35 -8 -35 -10
63 45 195 108 154 74 157 75 188 52z m2099 -29 c-23 -24 -40 -46 -37 -49 9 -9
-105 -69 -117 -62 -6 4 -8 3 -5 -3 4 -5 -15 -22 -40 -36 l-47 -25 32 -19 c30
-17 41 -32 25 -34 -53 -5 -83 -3 -110 9 -30 14 -32 14 -57 -14 -14 -16 -26
-34 -26 -40 0 -6 -6 -17 -14 -23 -10 -9 -16 -8 -26 4 -10 12 -8 16 11 24 13 5
18 10 12 10 -20 1 -16 21 23 103 34 70 40 76 71 80 43 5 47 -1 23 -40 -11 -18
-16 -32 -12 -32 22 1 247 127 247 138 0 13 59 51 80 52 5 0 -10 -19 -33 -43z
m-559 -76 c-3 -10 0 -22 6 -25 6 -4 11 -2 11 4 0 6 5 8 10 5 16 -10 11 -44
-10 -65 -26 -26 -33 -25 -25 3 7 22 7 22 -8 2 -8 -11 -12 -22 -8 -25 4 -3 11
-17 15 -32 8 -35 -19 -64 -67 -73 -22 -4 -39 -16 -47 -31 -15 -28 -20 -29 -45
-10 -16 12 -17 16 -6 30 18 22 2 20 -34 -4 -36 -24 -58 -25 -75 -5 -10 11 -9
18 4 30 9 9 16 21 16 26 0 15 39 49 55 49 14 0 14 -3 0 -30 -8 -16 -15 -31
-15 -34 0 -2 25 9 55 26 37 20 66 45 87 76 27 41 78 102 84 102 1 0 0 -8 -3
-19z m167 -10 c0 -4 -5 -22 -11 -40 -11 -32 -23 -39 -34 -21 -5 8 -11 7 -21
-1 -12 -9 -12 -6 -3 21 12 34 69 68 69 41z m-1670 -63 c-1 -49 -2 -51 -15 -34
-15 19 -15 19 -15 -3 0 -12 -4 -19 -10 -16 -20 12 -11 72 13 88 12 9 23 16 25
16 1 1 2 -23 2 -51z m140 -3 c-19 -19 -36 -31 -39 -27 -7 9 -43 8 -62 -3 -8
-4 2 8 20 28 29 31 42 37 75 37 l40 0 -34 -35z m824 -1 c4 -9 5 -18 4 -19 -8
-6 -169 -52 -164 -47 8 8 139 80 147 81 4 1 10 -6 13 -15z m604 -42 c4 -25 12
-28 31 -9 10 10 15 8 27 -7 8 -11 10 -24 6 -28 -11 -11 -92 2 -92 14 0 6 -7 8
-15 4 -19 -7 -21 24 -3 42 18 18 43 10 46 -16z m-1647 1 c32 -19 36 -34 15
-52 -14 -12 -248 -29 -446 -32 -84 -1 -113 2 -142 17 -21 10 -38 21 -38 25 0
4 18 9 39 11 22 2 37 0 35 -3 -2 -4 13 -5 34 -2 68 9 112 9 112 0 0 -5 6 -4
13 2 8 6 16 9 18 6 3 -2 21 -5 42 -7 20 -1 37 -5 37 -8 0 -4 7 -7 15 -7 9 0
14 6 11 14 -4 9 4 13 27 13 23 0 28 3 18 9 -17 11 22 19 114 24 33 2 62 4 63
5 2 1 17 -6 33 -15z m387 -2 c9 -5 2 -8 -20 -9 -23 -1 -28 2 -18 8 18 12 22
12 38 1z m-147 -55 c-35 -37 -23 -38 32 -1 43 29 57 33 81 27 l30 -8 -24 -17
c-14 -9 -36 -17 -50 -18 -14 0 -34 -4 -45 -9 -17 -7 -16 -9 10 -9 53 -2 3 -28
-57 -30 -10 -1 -18 -6 -18 -12 0 -7 10 -9 28 -4 18 4 24 3 17 -4 -23 -23 -115
-9 -115 17 0 14 24 32 45 33 16 1 17 2 3 6 -16 4 -16 7 3 32 16 22 26 26 50
23 l30 -4 -20 -22z m-128 -38 c-26 -33 -56 -63 -66 -66 -10 -3 -16 -11 -13
-18 3 -8 -8 -29 -25 -47 -24 -26 -29 -28 -27 -12 1 11 0 25 -4 30 -11 17 80
135 105 136 12 0 16 3 9 6 -22 9 7 33 40 33 l29 0 -48 -62z m341 54 c2 -4 -7
-12 -20 -19 -26 -12 -32 -5 -12 15 14 14 25 15 32 4z m186 -11 c0 -5 -8 -7
-17 -5 -10 2 -31 0 -48 -5 l-30 -9 38 -1 c20 -1 37 -6 37 -12 0 -7 -16 -10
-42 -7 -29 3 -60 -3 -97 -18 -43 -18 -58 -20 -73 -11 -29 18 -21 27 23 27 23
0 38 4 34 10 -6 10 7 14 85 29 62 12 90 13 90 2z m1290 -1 c0 -5 14 -10 30
-10 19 0 30 -5 30 -14 0 -7 13 -19 29 -26 16 -6 38 -21 48 -32 11 -13 -15 -3
-72 27 -104 55 -118 65 -87 65 12 0 22 -4 22 -10z m-259 -10 c11 0 18 -4 15
-8 -7 -12 -66 -2 -66 10 0 6 7 7 16 4 9 -3 25 -6 35 -6z m410 -57 c13 -16 12
-17 -3 -4 -17 13 -22 21 -14 21 2 0 10 -8 17 -17z m64 -63 c3 -6 -1 -7 -9 -4
-18 7 -21 14 -7 14 6 0 13 -4 16 -10z m103 -45 c-8 -8 -48 8 -42 16 3 5 14 4
25 -2 12 -6 19 -12 17 -14z m-2280 3 c-8 -7 -19 -20 -24 -29 -5 -9 -29 -38
-53 -65 -53 -59 -39 -28 18 41 23 27 41 53 41 57 0 5 8 8 17 8 15 0 15 -1 1
-12z m997 -63 c-38 -32 -48 -31 -33 0 8 17 19 25 37 25 l26 -1 -30 -24z m-555
-50 c0 -7 -9 -24 -20 -38 l-20 -26 22 -4 c16 -3 13 -5 -11 -6 l-33 -1 26 34
c34 45 34 60 -1 52 -26 -6 -27 -5 -9 9 21 16 46 5 46 -20z m310 -27 c0 -25 -5
-41 -15 -44 -21 -8 -45 14 -44 40 1 19 2 18 8 -4 4 -14 15 -26 24 -28 14 -3
17 4 17 37 0 42 -14 53 -38 29 -7 -7 -12 -9 -12 -6 0 4 7 14 16 23 24 23 44 2
44 -47z m430 41 c0 -15 -32 -90 -37 -85 -2 2 3 21 11 41 20 47 20 48 -4 42
-22 -6 -28 8 -7 16 15 5 37 -3 37 -14z m305 11 c7 -12 -26 -100 -37 -100 -4 0
1 19 12 42 20 45 17 66 -6 47 -8 -6 -18 -9 -21 -5 -8 8 15 26 34 26 6 0 15 -5
18 -10z"/>
<path d="M2421 2101 c-71 -6 -76 -8 -93 -37 l-18 -31 96 28 c53 16 105 29 115
29 10 0 21 5 24 10 6 10 3 10 -124 1z"/>
<path d="M1930 2080 c-8 -16 -8 -22 3 -26 13 -5 154 30 165 41 3 3 -31 5 -76
5 -71 0 -83 -2 -92 -20z"/>
<path d="M1950 2001 c0 -5 5 -13 10 -16 6 -3 10 -2 10 4 0 5 -4 13 -10 16 -5
3 -10 2 -10 -4z"/>
<path d="M2997 2059 c7 -7 15 -10 18 -7 3 3 -2 9 -12 12 -14 6 -15 5 -6 -5z"/>
<path d="M2740 2140 c0 -5 5 -10 10 -10 6 0 10 5 10 10 0 6 -4 10 -10 10 -5 0
-10 -4 -10 -10z"/>
<path d="M2691 2020 c-12 -17 -17 -30 -12 -30 12 0 46 48 39 55 -2 3 -14 -9
-27 -25z"/>
<path d="M1095 2040 c-3 -5 1 -10 10 -10 9 0 13 5 10 10 -3 6 -8 10 -10 10 -2
0 -7 -4 -10 -10z"/>
<path d="M1348 1913 c7 -3 16 -2 19 1 4 3 -2 6 -13 5 -11 0 -14 -3 -6 -6z"/>
</g>
</svg>
